<svg id="logo-pms" xmlns="http://www.w3.org/2000/svg" viewBox="0 0 236 45.15"><path d="M410.21,295.18h-1.08v2.95h-2v-8.64h3c2.17,0,3.47.95,3.47,2.85S412.38,295.18,410.21,295.18Zm-.08-4.14h-1v2.58h1c1,0,1.56-.38,1.56-1.28S411.15,291,410.13,291Zm12.36,3.52,2.21,3.57h-2.13l-1.87-3.3h-1.2v3.3h-2v-8.64h3.15c2.14,0,3.46.88,3.46,2.68A2.41,2.41,0,0,1,422.49,294.56ZM420.7,291h-1.2v2.3h1.2c1,0,1.49-.35,1.49-1.14S421.69,291,420.7,291Zm9.71-1.52v8.64h-2v-8.64Zm8.72,6.33c0-.58-.26-.9-1.88-1.36-1.81-.52-2.59-1.43-2.59-2.68,0-1.43,1.06-2.44,2.95-2.44a4,4,0,0,1,3.17,1.4l-1.32,1a2.2,2.2,0,0,0-1.66-.79c-.78,0-1.15.32-1.15.79s.37.85,1.7,1.26c1.88.57,2.76,1.26,2.76,2.71s-1.24,2.59-3.2,2.59a4.69,4.69,0,0,1-3.62-1.54l1.41-1a2.8,2.8,0,0,0,2.11,1C438.65,296.69,439.13,296.35,439.13,295.82Zm9.87.74-2-3.84v5.41h-1.9v-8.64h2l2.58,4.95,2.58-4.95h2v8.64h-1.9v-5.41l-2,3.84Zm17.29,1.57h-2.1l-.56-1.78h-3.15l-.55,1.78h-2.1l3-8.64h2.44ZM461,294.79h2.18l-1.09-3.45Zm19.2,1.77-2-3.84v5.41h-1.9v-8.64h2l2.58,4.95,2.58-4.95h2v8.64h-1.9v-5.41l-2,3.84Zm9.52-7.07h5.78v1.57h-3.82v1.85H495v1.56h-3.38v2.09h3.93v1.57h-5.89Zm13,8.64h-3.15v-8.64h3.15a4.32,4.32,0,0,1,0,8.64Zm-1.19-1.62h1.12c1.38,0,2.29-.89,2.29-2.7s-.91-2.7-2.29-2.7H501.5Zm11.41-7v8.64h-2v-8.64Zm12.2,8.64H523l-.57-1.78H519.3l-.56,1.78h-2.09l3-8.64h2.44Zm-5.32-3.34H522l-1.08-3.45ZM414.33,313.51c0-.87-.45-1.32-3.36-2.18-3.23-1-4.73-2.65-4.73-5.16,0-2.91,2.2-4.86,5.88-4.86a7.8,7.8,0,0,1,6.19,2.7l-2.93,2.11a3.58,3.58,0,0,0-2.72-1.31c-1.2,0-1.8.44-1.8,1.19s.63,1.34,3.14,2.11c3.4,1.06,4.94,2.42,4.94,5.12,0,3.07-2.53,5.06-6.44,5.06a8.73,8.73,0,0,1-6.9-3l3.12-2.23a4.84,4.84,0,0,0,3.57,1.72C413.58,314.8,414.33,314.33,414.33,313.51Zm6.37-3.71c0-5,3-8.49,8-8.49s8,3.45,8,8.49-3,8.49-8,8.49S420.7,314.84,420.7,309.8Zm11.35,0c0-2.93-1.31-4.73-3.37-4.73s-3.38,1.8-3.38,4.73,1.31,4.74,3.38,4.74S432.05,312.73,432.05,309.8Zm7.18-8.2h4.54v12.7h6.87V318H439.23Zm13.17,9.66V301.6H457v9.84c0,2.09,1,3.12,2.74,3.12s2.75-1,2.75-3.12V301.6H467v9.66c0,4.57-2.93,7-7.3,7S452.4,315.83,452.4,311.26Zm21.2-6h-4.55v-3.7H482.7v3.7h-4.55V318H473.6Zm15.8-3.7V318h-4.55V301.6Zm2.67,8.2c0-5,3-8.49,8-8.49s8,3.45,8,8.49-3,8.49-8,8.49S492.07,314.84,492.07,309.8Zm11.35,0c0-2.93-1.31-4.73-3.37-4.73s-3.38,1.8-3.38,4.73,1.31,4.74,3.38,4.74S503.42,312.73,503.42,309.8Zm7.18-8.2h4.45l5.25,8.95V301.6h4.44V318h-4.46L515,309.08V318H510.6Zm25.2,11.91c0-.87-.44-1.32-3.35-2.18-3.24-1-4.74-2.65-4.74-5.16,0-2.91,2.21-4.86,5.89-4.86a7.83,7.83,0,0,1,6.19,2.7l-2.93,2.11a3.58,3.58,0,0,0-2.72-1.31c-1.2,0-1.81.44-1.81,1.19s.63,1.34,3.14,2.11c3.4,1.06,4.95,2.42,4.95,5.12,0,3.07-2.53,5.06-6.45,5.06a8.71,8.71,0,0,1-6.89-3l3.12-2.23a4.83,4.83,0,0,0,3.56,1.72C535.05,314.8,535.8,314.33,535.8,313.51Z" transform="translate(-304.42 -281.44)" class="baseline"></path><path d="M378.16,305.65l-7.61,20.91h-8.84l-7.32-20.95-5.3,20.95H337.52l11.18-45.12h9.11l8.61,25.23L375,281.44h9.11l11.18,45.12H383.41ZM316.42,293.4l15.38-9.9a26.06,26.06,0,0,0-11.08-2h-16.3v45.12h12Zm16.75-9.17L318,311.73h4.65c10.39,0,16.84-5.82,16.84-15.19,0-4.4-1.31-9.32-6.29-12.31" transform="translate(-304.42 -281.44)" style="fill:#ff0046"></path>
</svg>